<?xml version="1.0" standalone="no"?><!DOCTYPE svg PUBLIC "-//W3C//DTD SVG 1.1//EN" "http://www.w3.org/Graphics/SVG/1.1/DTD/svg11.dtd"><svg t="1739868767938" class="icon" viewBox="0 0 1024 1024" version="1.1" xmlns="http://www.w3.org/2000/svg" p-id="4661" data-spm-anchor-id="a313x.search_index.0.i18.72ec3a81EADk86" xmlns:xlink="http://www.w3.org/1999/xlink" width="200" height="200"><path d="M941.4 142.9H415.3c-10.4 0-19-8.5-19-19 0-10.4 8.5-19 19-19h526.1c10.4 0 19 8.5 19 19s-8.6 19-19 19zM940.4 256.6H415.3c-10.4 0-19-8.5-19-19 0-10.4 8.5-19 19-19h525.1c10.4 0 19 8.5 19 19-0.1 10.5-8.6 19-19 19zM747 370.4H415.3c-10.4 0-19-8.5-19-19 0-10.4 8.5-19 19-19H747c10.4 0 19 8.5 19 19 0 10.4-8.5 19-19 19zM941.4 711.6H415.3c-10.4 0-19-8.5-19-19 0-10.4 8.5-19 19-19h526.1c10.4 0 19 8.5 19 19s-8.6 19-19 19zM940.4 825.3H415.3c-10.4 0-19-8.5-19-19 0-10.4 8.5-19 19-19h525.1c10.4 0 19 8.5 19 19-0.1 10.5-8.6 19-19 19zM747 930.1H415.3c-10.4 0-19-8.5-19-19 0-10.4 8.5-19 19-19H747c10.4 0 19 8.5 19 19 0 10.4-8.5 19-19 19zM254.1 314.3c1.3-5.3 2-10.8 2-16.4V166.7c0-38.8-31.7-70.5-70.5-70.5h-40.9c-38.8 0-70.5 31.7-70.5 70.5v131.2c0 38.8 31.7 70.5 70.5 70.5h40.9c17.1 0 32.9-6.2 45.1-16.5 8.4 8.4 16 17.1 22.6 26 10.5-9.6 22.4-18.2 35.4-25.6-9.8-13.2-21.3-26-34.6-38z m-81.9 16.1h-14.1c-25.3 0-45.9-20.5-45.9-45.9V180.1c0-25.3 20.5-45.9 45.9-45.9h14.1c25.3 0 45.9 20.5 45.9 45.9v104.4c0 0.7 0 1.4-0.1 2-12-7.8-24.9-15-38.7-21.5-9.3 11.1-17.5 22.7-24.7 34.6 15.1 7 29.1 15 41.7 23.8-7 4.4-15.2 7-24.1 7zM187.8 664.2h-28.4L64.6 929.6H112l19-56.9h94.8l19 56.9h37.9l-94.9-265.4z m-47.4 170.6l37.9-113.7 35 113.7h-72.9z" fill="#09a2f1" p-id="4662" data-spm-anchor-id="a313x.search_index.0.i19.72ec3a81EADk86" class="selected"></path></svg>